/* XPM */
static char *ca4f74bb67704301a2b1a84fb443cdaeKVAUpN9UjJzQZ26d[] = {
/* columns rows colors chars-per-pixel */
"49 49 237 2 ",
"   c #89360D",
".  c #953C0C",
"X  c #974819",
"o  c #99440F",
"O  c #A84912",
"+  c #AE5313",
"@  c #BB611C",
"#  c #944E2B",
"$  c #B65727",
"%  c #AD522B",
"&  c #B76425",
"*  c #A56239",
"=  c #BD7035",
"-  c #C3591C",
";  c #C66A22",
":  c #CC7528",
">  c #D87E2B",
",  c #C87A38",
"<  c #D97838",
"1  c #CF683C",
"2  c #E0782B",
"3  c #BB4D49",
"4  c #A66A4B",
"5  c #A9755A",
"6  c #AA7251",
"7  c #B64A78",
"8  c #A2636B",
"9  c #96716F",
"0  c #D1546D",
"q  c #CC566F",
"w  c #E2597E",
"e  c #D8617A",
"r  c #D7777D",
"t  c #D56064",
"y  c #E56F72",
"u  c #D46D54",
"i  c #458A38",
"p  c #599649",
"a  c #509445",
"s  c #6C8B55",
"d  c #59A34C",
"f  c #68A15B",
"g  c #DA8536",
"h  c #E18E3D",
"j  c #87925F",
"k  c #87976A",
"l  c #93956F",
"z  c #C5834C",
"x  c #D9914C",
"c  c #D1825C",
"v  c #DA975E",
"b  c #CC8C57",
"n  c #E49242",
"m  c #E7984B",
"M  c #E79A56",
"N  c #F0994F",
"B  c #EDA25B",
"V  c #F0A443",
"C  c #D8857B",
"Z  c #C89875",
"A  c #DA9A7A",
"S  c #E59979",
"D  c #DAA479",
"F  c #ECA667",
"G  c #EBAD7B",
"H  c #F2B17E",
"J  c #EFB37B",
"K  c #B75A86",
"L  c #BC648A",
"P  c #AC778F",
"I  c #C85787",
"U  c #D75983",
"Y  c #D15190",
"T  c #CD4C86",
"R  c #F54D8E",
"E  c #E4558E",
"W  c #E55B8D",
"Q  c #EB598D",
"!  c #F75A8F",
"~  c #EA5994",
"^  c #FE5493",
"/  c #F65C93",
"(  c #FC5B95",
")  c #FD5D99",
"_  c #F7579A",
"`  c #D96A97",
"'  c #CE7F9D",
"]  c #DC749B",
"[  c #C86C8E",
"{  c #E7658C",
"}  c #F6678B",
"|  c #F2798C",
" . c #E76795",
".. c #FD649C",
"X. c #FD6A9E",
"o. c #F46698",
"O. c #E6769A",
"+. c #F77E91",
"@. c #FC5EA3",
"#. c #C777A1",
"$. c #DA7EA5",
"%. c #FF65A2",
"&. c #FD6BA2",
"*. c #FF66AB",
"=. c #FF6BA9",
"-. c #F66BA3",
";. c #E97AA7",
":. c #F575A5",
">. c #FD72A5",
",. c #FE75AA",
"<. c #F47CAA",
"1. c #FD7BAC",
"2. c #F777A7",
"3. c #FF7DB2",
"4. c #F97AB3",
"5. c #EC74AA",
"6. c #7C909A",
"7. c #739DAA",
"8. c #6F95A9",
"9. c #6FA9B2",
"0. c #B6898D",
"q. c #A4839E",
"w. c #BA8395",
"e. c #A69E87",
"r. c #B1AA8E",
"t. c #879DAD",
"y. c #939BA5",
"u. c #9595B0",
"i. c #BE87A8",
"p. c #BD96AD",
"a. c #8EAEB7",
"s. c #B9A8B9",
"d. c #A9AAB8",
"f. c #DF8F81",
"g. c #DE938B",
"h. c #F78A97",
"j. c #E8918E",
"k. c #C6A192",
"l. c #DAAB81",
"z. c #EBA488",
"x. c #F6A88A",
"c. c #ECB789",
"v. c #F3B788",
"b. c #F5A696",
"n. c #F7BB97",
"m. c #E7BE9C",
"M. c #D685A7",
"N. c #C994AB",
"B. c #D896AA",
"V. c #CD95B5",
"C. c #CF8FAC",
"Z. c #E786A9",
"A. c #FD82AD",
"S. c #F987AA",
"D. c #E899AC",
"F. c #F89AA9",
"G. c #F484B2",
"H. c #FE84B2",
"J. c #FD8AB5",
"K. c #FE8BBA",
"L. c #FB88BA",
"P. c #EA9AB8",
"I. c #F492B9",
"U. c #FD94BC",
"Y. c #FB9BBD",
"T. c #F597BA",
"R. c #CBB2A8",
"E. c #CEB7AE",
"W. c #F8A7A8",
"Q. c #EDB7A8",
"!. c #F4B2A4",
"~. c #E7A3BD",
"^. c #F7A5B7",
"/. c #F8B5B6",
"(. c #EEB4B3",
"). c #FBC585",
"_. c #FDC986",
"`. c #FAC187",
"'. c #FBC397",
"]. c #D5C4BD",
"[. c #DBC1AD",
"{. c #E5CAA8",
"}. c #FDCBAB",
"|. c #FDC6A4",
" X c #F9D3AB",
".X c #FDCABB",
"XX c #FAC7B4",
"oX c #F0CFB7",
"OX c #FE93C1",
"+X c #FE9DC3",
"@X c #F599C5",
"#X c #D8BCCA",
"$X c #C9AFC2",
"%X c #FEA3C5",
"&X c #FFA5CB",
"*X c #F7AAC7",
"=X c #F4B5CD",
"-X c #F2BBD2",
";X c #F3A8CC",
":X c #D8C9C6",
">X c #DDD2CD",
",X c #D9CDD1",
"<X c #F9C9C7",
"1X c #EBDCCB",
"2X c #E7C5D3",
"3X c #F3C4D2",
"4X c #E9DDD5",
"5X c #F1DACC",
"6X c #F2E6D9",
"7X c #F8DAE3",
"8X c #E9D9E1",
"9X c #EDEDED",
"0X c #EFEAE7",
"qX c #F1ECED",
"wX c #F0E8E7",
"eX c #EDF3ED",
"rX c #F3F3E9",
"tX c #EDEFF1",
"yX c #F9ECF3",
"uX c #EEF3F2",
"iX c #EEF9F3",
"pX c #F4F4F4",
"aX c #F8F6F6",
"sX c #F1F9F6",
"dX c #F2F6FA",
"fX c #F6FBFC",
"gX c #F9F9F9",
"hX c #F8F8F8",
"jX c gray98",
"kX c #FBFBFB",
"lX c #FAFAFA",
"zX c #FDFDFD",
"xX c white",
"cX c #FEFEFE",
"vX c #FEFEFE",
"bX c #FDFDFD",
"nX c #FAF9F7",
/* pixels */
"9X9X9XjXxXxXpX9X9XpXxXxXxX9X9X9XjXxXxXjX9X9XpXxXxXxXpX9X9XjXxXxXjX9X9X9XxXxXxXpX9X9XpXxXxXjX9X9X9X",
"9X9X9XjXxXxXpX9X9XpXxXxXxXpX9X9XjXxXxXjX9X9XpXxXxXxXpX9X9XjXxXxXjX9X9XpXxXxXxXpX9X9XpXxXxXjX9X9X9X",
"9X9X9XjXxXxXpX9X9XpXxXxXxX9X9X9XjXxXxXjX9X9X9XxXxXxX9X9X9XpXxXxXjX9X9X9XxXxXxXpX9X9XpXxXxXjX9X9X9X",
"jXjXjXpXpXpXpXjXjXjXpXpXpXjXjXjXpXpXpXpXjXjXjXpXpXpXjXjXjXpXpXpXpXjXjXjXpXpXpXjXjXjXpXpXpXpXjXjXjX",
"xXxXxXpX9X9XpXxXxXjX9X9X9XxXxXxXpX9X9XpXxXxXxX9X9X9XxXxXxXpX9X9XpXxXxXxX9X9X9XjXxXxXpX9X9XpXxXxXxX",
"xXxXxXpX9X9XpXxXxXxX9X9X9XxXxXxXpX9X9XpXxXxXxX9X9X9XxXxXxXpX9X9XpXxXxXxX9X9X9XxXxXxXpX9X9XpXxXxXxX",
"pXpXpXpXpXpXpXpXpXpXpXpXpXpXpXpXpXpXpXpXpXpXpXpXpXpXpXpXpXpXpXpXpXpXpXpXpXpXpXpXpXpXpXpXpXpXpXpXpX",
"9X9X9XjXxXxXpX9X9XpXxXxXxX9X9X9XjXxXxXaX9X9X9XxXxXxX9X9X9XjXxXxXjX9X9X9XxXxXxXpX9X9XpXxXxXjX9X9X9X",
"9X9X9XjXxXxXpX9X9XpXxXxXxX9X9X9XjXxXxXfXuXiXiXxXxXxXsXuX9XpXxXxXjX9X9X9XxXxXxXpX9X9XpXxXxXjX9X9X9X",
"pXpXpXjXjXxXpXpXpXpXjXjXjXpXsXiXyX7X<X/.W.F.S.G.H.T.=X7XsXfXjXkXpXpXpXpXjXjXjXpXpXpXpXxXjXjXpXpXpX",
"xXxXxXpX9X9XpXxXxXjX9X9XeXxX7XI.X.( ! ( )  . ...&.&...X.I.<XeXuXpXxXxXxX9X9X9XjXxXxXpX9X9XpXxXxXxX",
"xXxXxXpX9X9XpXxXxXjX9XuX9XI.^ ^ ( ..*.=.:.a 0.3.1.1.S.A.) o.h.<XsXxXxXxX9X9X9XjXxXxXpX9X9XpXxXxXxX",
"xXxXxXpX9X9XpXxXxXjXuX7X..^ ( ) .. .k Z.G.w.OXU.U.%XD.(.A.,.%./ S.7XxXxX9X9X9XjXxXxXpX9X9XpXxXxXxX",
"9XpX9XjXxXxXpX9X9XsX7X .<.( ) X.>.:.s d %X+X` I.%X%X+XD.T.K.[ s %.) T.pXfXkXxXpX9X9XpXxXxXjX9XpX9X",
"9X9X9XjXxXxXpX9XuXwX/ N.*X^ } S S H.L.y.a.s.] ` H.J.U.T.-X&X0.p L.&.( 2.yXxXxXpX9X9XpXxXxXjX9X9X9X",
"9X9X9XjXxXxXpX9XuXS.R ` ( ^ / ' Z.J.J.i.P $.K.1.1.1.1.2X3X%X~.B.U.%X1...:.yXxXqX9X9XpXxXxXjX9X9X9X",
"jXjXjXpXpXpXpXfX3X^ ..^  .;.;.N.s.I.&.1.K.H.1.&.~ &.;.N.U.+X+X&XU.#X3X1.,.2.qXfXjXjXpXpXpXpXjXjXjX",
"xXxXxXpX9X9XpXbXb.^ ) ) #.7.y.o.{ o.( ..W :.,.{ c { 1.1.J.K.s.a.$XP.N.1.H.1.G.kXxXxXpX9X9XpXxXxXxX",
"xXxXxXpX9X9XfX5Xv.| _ l j ~ ` ,.,.&.( ( c e *.y V y =.>.1.H.#.q.p.&X&XH.1.H.&.*XxXxXpX9X9XpXxXxXxX",
"jXjXjXpXpXpXfXm.v.x.) U i l T I 1.&.) / N u E < 2 1 ~ %.>.H.<.I <.+X#Xa.>.1.>.-.yXjXpXpXpXpXjXjXjX",
"9X9X9XjXxXxXfXD '.x.( %.) O.1.] <.>.../ < - $ - - - $ w >.J.J.] ` OXu.i.1.1.&.} 4XtXpXxXxXjX9X9X9X",
"9X9X9XjXxXxXpXv '.x._  .-.H.$Xa.1.&...y 6 6 4 #   . + $ -.3.>.1.1.F.W.A.2.` =.}  XuXpXxXxXjX9X9X9X",
"pXpX9XjXkXxXpXx '.b.E 7 T C.7.#.1.&.^ W.eXdXdXpX].5   O 0 t Q &.>.A Z D.J.K 2.( z.rXpXxXxXjX9XpXpX",
"xXxXxXpX9X9XpXx v.b.( :.G.A.^./.U.3.) S.xXxXjXuXdXfXE.X O ; w &.&.*.G.+X+X` o.%.} rXfX9X9XpXxXxXxX",
"xXxXxXpX9X9XfXv M XX} [ 9.R.A A r.f ;.) *XxXkX9X9X9XxX>XX $ W &.O.l k.@XV.&.2.,.( <XfX9X9XpXxXxXxX",
"xXxXxXpX9X9XfXl.> }.j.R K 6.] 4.k e.K.>.( *XfXtX9X9XpXxXR.% _ ..a i 0.7.P %.z.W.) %XfX9X9XpXxXxXxX",
"pXpX9XjXxXkXfX[.: G .Xz.{ Q 3.J.$X,X#XJ.1...!.rXxXxXsXsXiXf...&.` *.u.t.U.,.O.f.&.G.fXkXxXjX9XpXpX",
"9X9X9XjXxXxXjX8X, h |.}.).C o.H.M.w.C.%XJ.1...+.^.=X-X3X^.=.&.>.1.1.M.:XB.,.1.:.&.:.dXxXxXjX9X9X9X",
"9X9X9XjXxXxXpXdXZ : F .X|.).r -.+XU.Y 4.%XU.K.4.h.h.X...&.1.V.1.j.x.1. ...>.&.,.X.:.pXxXxXjX9X9X9X",
"jXjXjXpXpXpXpXfX4X& g G <X'.J U 3.P.k 9 +X=X9.t.h.D z.J.J.d.t.U.Z.A S.2.Z.( ( ..^ G.fXpXpXpXjXjXjX",
"xXxXxXpX9X9XpXxXxXZ @ n v.<X|.A ~ s p B.+X8.6.P.&XI.D.+X+Xt.P.%XOXG.>.~ 9.M.^ / | 7XfX9X9XpXxXxXxX",
"xXxXxXpX9X9XpXxXxXaX* : n v.<X}.r ~ 3.,.H.Z.Y.8X-X&X%X%X%X%X&XI.7 5.1.&.L q.^ S  XxXpX9X9XpXxXxXxX",
"jXjXjXpXpXpXpXjXpXxX>XX : n H .XXX{ X.X.&.3.~.;XG.:.o.,.Z.d e.U.Z.L A.,...R r ).5XfXpXpXpXpXjXjXjX",
"9X9X9XjXxXxXpX9X9X9XxXE.o : n F }.(.W ( ..>.-.{ r C r U E 8 s Z.H.H.1.>...U c.c.9X9XpXxXxXjX9X9X9X",
"9X9X9XjXxXxXpX9X9XpXxXxXE.X ; h M v.Q.` W { r G )._._.c.C E @.>.>.>.>.X._ g.F 1XuX9XhXxXxXjX9X9X9X",
"9XpX9XjXxXxXpX9X9XpXxXjXxX].# + g n F v.Q.XX.X}.'.`.`.)._.D q ) &.X.X.@.e x oXfX9XtXpXxXxXjX9XpX9X",
"xXxXxXpX9X9XpXxXxXjX9X9X9XxXqX5 . & g n B H n.XX.X.X.XXXXX}.Q.[ ~ ..@.0 , {.dXnXxXxXpX9X9XpXxXxXxX",
"xXxXxXpX9X9XpXxXxXjX9X9XtXjXxXxXR.* o @ > h m B F H v.n.n.n.n.G q q 3 b 1XdX9XjXxXxXpX9X9XpXxXxXxX",
"xXxXxXpX9X9XpXxXxXjX9X9X9XxXxXxXfX9XR.4 X O @ : g g h n h h g > : z {.bXuX9X9XjXxXxXpX9X9XpXxXxXxX",
"pXpXpXjXjXjXpXpXpXpXjXjXjXpXpXpXpXfXxXfX>Xk.5 * % % $ & & = z D oXqXfXpXjXjXjXpXpXpXpXxXjXjXpXpXpX",
"9X9X9XjXxXxXpX9X9XpXxXxXxX9X9X9XjXxXxXpXpXfXfXjX0X4X:X:X>X0XxXxXxX9X9X9XxXxXxXpX9X9XpXxXxXjX9X9X9X",
"9X9X9XjXxXxXpX9X9XpXxXxXxX9X9X9XjXxXxXjX9X9X9XxXxXxXdXpXuXkXxXxXaX9X9X9XxXxXxXpX9X9XpXxXxXjX9X9X9X",
"pXpXpXpXpXpXpXpXpXpXpXpXpXpXpXpXpXpXpXpXpXpXpXpXpXpXpXpXpXpXpXpXpXpXpXpXpXpXpXpXpXpXpXpXpXpXpXpXpX",
"xXxXxXpX9X9XpXxXxXxX9X9X9XxXxXxXpX9X9XpXxXxXxX9X9X9XxXxXxXpX9X9XpXxXxXxX9X9X9XxXxXxXpX9X9XpXxXxXxX",
"xXxXxXpX9X9XpXxXxXjX9X9X9XxXxXxXpX9X9XpXxXxXxX9X9X9XxXxXxXpX9X9XpXxXxXxX9X9X9XjXxXxXpX9X9XpXxXxXxX",
"jXjXjXpXpXpXpXjXjXjXpXpXpXjXjXjXpXpXpXpXjXjXjXpXpXpXjXjXjXpXpXpXpXjXjXjXpXpXpXjXjXjXpXpXpXpXjXjXjX",
"9X9X9XjXxXxXpX9X9XpXxXxXxX9X9X9XjXxXxXjX9X9X9XxXxXxX9X9X9XjXxXxXjX9X9X9XxXxXxXpX9X9XpXxXxXjX9X9X9X",
"9X9X9XjXxXxXpX9X9XpXxXxXxXpX9X9XjXxXxXjX9X9XpXxXxXxXpX9X9XjXxXxXjX9X9XpXxXxXxXpX9X9XpXxXxXjX9X9X9X",
"9X9X9XjXxXxXpX9X9XpXxXxXxX9X9X9XjXxXxXjX9X9XpXxXxXxXpX9X9XjXxXxXjX9X9X9XxXxXxXpX9X9XpXxXxXjX9X9X9X"
};
