/* XPM */
static char *_288499f3e2c4fefdf4dffa2a873f059pvRaX0sp6KbaTqsk[] = {
/* columns rows colors chars-per-pixel */
"49 49 4 1 ",
"  c None",
". c #78A158",
"X c #A4C263",
"o c #C0D470",
/* pixels */
"                                                 ",
"                                                 ",
"        ................................         ",
"     ......XXXXXXXX...XXXXX..XXXXXXXX......      ",
"    ..XXXXXXXXXXXXXXXXXXXXXXXXXXXXXXXXXXX...     ",
"   ..XXXXXXXXXXXoXXXXXXXoXXXXXooooXXXXXXXXX..    ",
"   .XXXXXXoXooooooooXooXooXoooooooXoXXXXXXX..    ",
"   ..XXXXooooXooooXooooooooooXooooooooXoXXX..    ",
"  ...XXXoooooooooooooooooXoooooooooooooooXXX..   ",
"  ..XXXoooooooooooooooooooooooooooooooooooXX..   ",
"  ..XXXXooooooooooooooooooooooooooXoooooooXXX.   ",
"  .XXXoooooooooooooooooooooooooooooooooXooXXX.   ",
"  .XXXoooooooXoooooooooooooooooooooooooooooX..   ",
"  .XXXoXooooooooooooooooooooooooooooooooooXX..   ",
"  .XXooooooooooooooooooooooooooooooooooooooXX.   ",
"  .XXooooooooooooooooooooooooooooooooooooooXX.   ",
"  .XXXoooooooooooooooooooooooooooooooooooooXX.   ",
"  .XXooXoooooooooooooooooooooooooooooooooooXX.   ",
"  .XXooooooooooooooooooooooooooooooooXooooXXX.   ",
"  ..XXoooooXoooooooooooooooooooooooooooooXXX..   ",
"  ..XXXoooooooooooooooooooooooooooooooooooXX..   ",
"  ..XXoooooooooooooooooooooooooooooooooooXXX..   ",
"  .XXXooXooooooooooooooooooooooooooooooooXXXX.   ",
"  .XXoooooooooooooooooooooooooooooooooooooXXX.   ",
"  .XXooooooooooooooooooooooooooooooooooXooXXX.   ",
"  .XXXooooooooooooooooooooooooooooooooooooXXX.   ",
"  ..XXooooooooooooooooooooooooooooooooooooXXX.   ",
"  ..XXooooooooooooooooooooooooooooooXooooXXXX.   ",
"  .XXXXooXooooooooooooooooooooooooooooooooXX..   ",
"  .XXXoooooooooooooooooooooooooooooooooXoooX..   ",
"  .XXooooooooooooooooooooooooooooooooooooooXX.   ",
"  .XXXoooooooooooooooooooooooooooooooooooooXX.   ",
"  .XXoooooooooooooooooooooooooooooooooooooXX..   ",
"  .XXXooooooooooooooooooooooooooooooooooooXX..   ",
"  ..XXXooooooooooooooooooooooooooooooXoooXXXX.   ",
"  ..XXooooXoooooooooooooooooooooooooooooooXXX.   ",
"  .XXXXooooooooooooooooooooooooooooooooooXXXX.   ",
"  .XXXoooooooXooooooooooooooooooooooooooooXX..   ",
"  ..XXooooooooooooXoooooooooXoooooooooooooXX..   ",
"  ..XXXXoooooooooooooooooooooooooooXooXooXXX..   ",
"   .XXXooooXooooooooooXooooooooooooooooooXX..    ",
"   ..XXXooXooooooooXooooooXooXooooooooooXXX..    ",
"   ..XXXXXXXXoXoooXXXXoooXXXXXXoooXooXXXXXX..    ",
"    ..XXXXXXXXXXXXXXXXXXXXXXXXXXXXXXXXXXXX..     ",
"     ......X..XXXX...XXXXX...XXXXX..XX.....      ",
"        ................................         ",
"                                                 ",
"                                                 ",
"                                                 "
};
