/* XPM */
static char *cf2f46825cc4443bb1de228a6adf12a7ylfTqi9bRNDSZnDL[] = {
/* columns rows colors chars-per-pixel */
"49 49 254 2 ",
"   c #32352D",
".  c #321500",
"X  c #5D3C15",
"o  c #543408",
"O  c #62381C",
"+  c #53372B",
"@  c #6A3D2C",
"#  c #384C11",
"$  c #284B39",
"%  c #34573C",
"&  c #334C2E",
"*  c #514813",
"=  c #68451B",
"-  c #6A5F1F",
";  c #4D4E31",
":  c #6B4626",
">  c #785C2A",
",  c #684734",
"<  c #795B36",
"1  c #744C2E",
"2  c #516730",
"3  c #786C37",
"4  c #7F6A1B",
"5  c #2B304C",
"6  c #333A72",
"7  c #503357",
"8  c #52366C",
"9  c #67366E",
"0  c #662D52",
"q  c #1C4D58",
"w  c #1C5C57",
"e  c #1E584C",
"r  c #26574A",
"t  c #325749",
"y  c #245B53",
"u  c #245B5C",
"i  c #2A5C5C",
"p  c #2A5854",
"a  c #355757",
"s  c #2D4C50",
"d  c #1A615D",
"f  c #346456",
"g  c #1A5B64",
"h  c #1D4A6B",
"j  c #275B66",
"k  c #345765",
"l  c #2A5D72",
"z  c #334C71",
"x  c #1D6268",
"c  c #276369",
"v  c #36666B",
"b  c #376873",
"n  c #4A4F4C",
"m  c #675458",
"M  c #775A55",
"N  c #72534A",
"B  c #4D6B4D",
"V  c #716E4B",
"C  c #594777",
"Z  c #524C6E",
"A  c #695964",
"S  c #79487A",
"D  c #775678",
"F  c #6B4F73",
"G  c #496B6A",
"H  c #75666F",
"J  c #842C3B",
"K  c #945410",
"L  c #AE5515",
"P  c #AE671C",
"I  c #8A5C35",
"U  c #925031",
"Y  c #AC5A2C",
"T  c #8D7232",
"R  c #B96829",
"E  c #B16E34",
"W  c #9C721E",
"Q  c #C8661C",
"!  c #CA5B25",
"~  c #CA6622",
"^  c #C46B23",
"/  c #CD652B",
"(  c #C96A28",
")  c #D36529",
"_  c #C86A35",
"`  c #CB7030",
"'  c #D3692C",
"]  c #8F3B4D",
"[  c #A63856",
"{  c #A93B60",
"}  c #865C4A",
"|  c #93425C",
" . c #8A5956",
".. c #914F50",
"X. c #86644A",
"o. c #89734C",
"O. c #967848",
"+. c #976A57",
"@. c #897555",
"#. c #997657",
"$. c #8E674E",
"%. c #A77A4A",
"&. c #A67856",
"*. c #AE6C4C",
"=. c #8F5572",
"-. c #9A6868",
";. c #86776A",
":. c #9A7662",
">. c #8E6A74",
",. c #A67864",
"<. c #A77976",
"1. c #AF7672",
"2. c #A4515F",
"3. c #C67757",
"4. c #7A8351",
"5. c #B09018",
"6. c #9A8636",
"7. c #968730",
"8. c #A4873B",
"9. c #B39231",
"0. c #B9A331",
"q. c #9DA536",
"w. c #C49C35",
"e. c #C98B34",
"r. c #D7B62D",
"t. c #CCAA39",
"y. c #D3AE3D",
"u. c #D9AC37",
"i. c #CCB338",
"p. c #D4B434",
"a. c #DBB934",
"s. c #D4B43B",
"d. c #DAB33D",
"f. c #DBBB3B",
"g. c #D7B838",
"h. c #CEAC2B",
"j. c #E5B73B",
"k. c #E3B535",
"l. c #DAC235",
"z. c #9A864A",
"x. c #9A8758",
"c. c #888C4D",
"v. c #A68847",
"b. c #A99147",
"n. c #B79848",
"m. c #A78855",
"M. c #AA9556",
"N. c #B49858",
"B. c #B48754",
"V. c #BAA547",
"C. c #B8A656",
"Z. c #AFAB52",
"A. c #988A6A",
"S. c #978E74",
"D. c #A99765",
"F. c #B69764",
"G. c #AB896D",
"H. c #B7A668",
"J. c #B4A675",
"K. c #B0AE74",
"L. c #C9984D",
"P. c #C8A946",
"I. c #D3AE42",
"U. c #D9AC46",
"Y. c #CCB547",
"T. c #D5B442",
"R. c #DBB342",
"E. c #DCBA43",
"W. c #D4B34A",
"Q. c #DAB54B",
"!. c #D6BA48",
"~. c #C8AB57",
"^. c #CBB458",
"/. c #D8B755",
"(. c #D8AC57",
"). c #E4B94A",
"_. c #E6B953",
"`. c #C5AA66",
"'. c #D7B965",
"]. c #C8B670",
"[. c #D8A36C",
"{. c #BEC266",
"}. c #DCC348",
"|. c #DBC455",
" X c #E2C247",
".X c #EDC351",
"XX c #DAC465",
"oX c #CCC26D",
"OX c #E2C86A",
"+X c #6B348D",
"@X c #314D92",
"#X c #385BA8",
"$X c #3A5DB6",
"%X c #304DA8",
"&X c #3864BC",
"*X c #3C61A6",
"=X c #3E6994",
"-X c #575795",
";X c #50558D",
":X c #70508D",
">X c #736891",
",X c #455DB9",
"<X c #4A66B0",
"1X c #576B92",
"2X c #3B5CCB",
"3X c #3C5DD4",
"4X c #3965C6",
"5X c #2F66C0",
"6X c #455DD0",
"7X c #4363CC",
"8X c #88578A",
"9X c #8E558A",
"0X c #A45C84",
"qX c #866587",
"wX c #976F8F",
"eX c #A87786",
"rX c #B37C8A",
"tX c #A97A97",
"yX c #B47C98",
"uX c #AC678D",
"iX c #9475AA",
"pX c #AD7DA7",
"aX c #B27EA2",
"sX c #B37FA8",
"dX c #928789",
"fX c #AE8488",
"gX c #B4838D",
"hX c #B88688",
"jX c #AE839B",
"kX c #B28295",
"lX c #BB8493",
"zX c #B3819C",
"xX c #BB849A",
"cX c #B98A99",
"vX c #BA9395",
"bX c #B69492",
"nX c #BBB790",
"mX c #AB83A3",
"MX c #B483A3",
"NX c #BB85A3",
"BX c #BC85AB",
"VX c #B688A8",
"CX c #B291A7",
"ZX c #AFA8AB",
"AX c #C18999",
"SX c #C39394",
"DX c #C5BA95",
"FX c #C18BA7",
"GX c #C591AE",
"HX c #BFC5B7",
"JX c #CEC89A",
"KX c #CBC9B0",
"LX c #D1BEC0",
"PX c #DCCFD1",
/* pixels */
"pXpXzXkXgXgXkXyXpXpXsXmXvXX.= T ].H.Z.Z.].].6.o X.hXhXI W d.E.i.5.* V M H A V : , hXxXxXhXlXMXpXxX",
"pXpXzXkXkXkXkXyXsXsXVXjXvXM X > `.C.V.b.H.].z.o M vX,.N./.d.t.|.|.6.3 ;.dX;.A.1 , hXxXxXhXlXMXVXNX",
"pXmXzXkXkXkXzXzXMXsXMXjXvXX.X > ~.n.V.^.].H.x.X ;.fXm.~.Q..X).Q.!.~.< @.;.;.x.: , gXxXxXlXlXMXVXNX",
"mXmXzXzXkXkXzXzXaXaXzXkXvXX.= > b.T 7.H.J.A.@.+ H >.G.`.C.~.n.~.|.OXO.o.@.@.x.< , gXxXAXlXlXzXNXNX",
"mXjXzXzXzXzXzXMXMXMXzXgXhX} O < D.c.3 S.A.;.H + D mXPXLXS.JXKXJ.~./.T #.m.x.m.< , hXAXAXxXxXxXxXxX",
"jXjXzXzXzXzXzXMXMXMXzXgXbX .@ < J.K.A.S.;.S.H ; m CXZXZXKXnXHXDX~.(.I #.F.x.F.I @ rXAXAXxXxXxXxXkX",
"zXzXzXzXaXaXaXaXMXzXzXgXSX+.@ < o.o.O.T X.o.3 * > m.M.C.K.JXKXnX~.9.o : : X > X , rXyXyXyXxXkXkXxX",
"kXkXzXzXyXaXaXaXMXzXkXgXSX .+ @ @ O = o : = * o > T 9.V.b.H.J.H./.W 1 $.} $.} } N AXAXxXaXNXxXxXcX",
"rXkXkXkXzXMXMXaXyXMXMXyXcXfX-.-.=.<. .+.#.@.X.X.M G.N.6.8.b.b.'.Q.9.,.SXhXSXSXhXSXAXlXAXyXGXyXFXNX",
"gXgXgXkXzXzXzXyXMXpXMXMXyXkXcXcXFXBXxXSXhXfXbXG.<.G.N.N.C.b.8.V.Q.8.,.AXAXyXFXFXAXkXlXkXNXBXzXzXxX",
"<.<.<.<.<.eXkXVXMXVXVXBXVXzXcXzXaXBXNXyXGXCXvX<.G.J.N.N.F.M.M.8.P.L.,.lXFXBXFXNXxXcXFXFXBXyXNXAXlX",
"+.$. .}  .-.<.zXMXVX8X8XVXMXzXMXMXVXMXjXmXwXqXA M :.D.M.z.z.M.b.~.~.&.SXNXBXaXBXNXyX>.yXBXNXxXgX-.",
",.&.&.&.&.,.<.kXjXtX9 S pXVXzXMXjXwXCXCXZ C -X6 6 n V z.A.m.v.9.P./.m.1.yXGXBXBXVXwX9 qXMXNXcX<.+.",
"B.%.B.%.%.&.:.<.VXqX9 :XpXBXMXjXcXCXCXqX8 -X-X6 6 Z c.z.m.N.9.0.T./.`.,.xXBXBXBXMX=.9 S VXkXvX,.&.",
"B.%.v.E E m.#.<.CXD 7 9 iXpXwXeXwXtXqX7 C >XC 7 A D.XXt.9.9.t.E. XP.~.&.eX=.>.VXVXS 7 9 BXcXfX$.%.",
"%.%.B.8.8.v.O.:.cX=.7 8 iXwX7 7 F 7 7 8 qXD m @.H.^.i.g.E.R.E.y.i./.^.= + N A wXVX:X9 8XMXcX<.#.%.",
"%.B.v.T v.O.O.+.fXpX+X:XiX8 Z >X-X>X>XH M X.v.~.W.T.g.g.T.T.T.T.Q.Q./.N.= N >.D iXiX:X8XMXAX-.#.&.",
"m.%.v.v.O.O.F.#.<.aX+X+XC 7 >X-X-X-XF A @.N.W.s.d.g.d.d.T.T.T.T.y.E.T.XXN.3 m F :X:X9 9XVXcX<.,.&.",
"M.O.m.m.m.v.m.$.+.eXS 8 8 -X;X-X:XA m o.M.~.W.s.d.d.d.d.T.T.T.s.f.p.s.|.^.M.A.>.8X:X9 9XMXrXlX<.hX",
"o.O.+.+.&.X.$.:.1.eXF 8 Z 1XiX>XdXA.D.H.'.^.Q.).d.d.d.s.s.s.s.g.f.h. Xi.Y.`.#.M qX:X9 9XNXkXGXcX<.",
"rX-.....1.<.jXjXxXeXF 8 -X;X>XS.D.`.'.^.Y.T.T.s.R.R.U.U.y.s.s.p.a.r.f.h.}./.T } =.9X9 9XGXyXxXtXm ",
"uX] J J | rXGXtXNXwX:X8 >XA N F.^.W.T.T.f.f.f.d.R.R.R.U.s.d.g.d.a.f.h.f.}.!.n.$.0 =.9 =.FXNXNXVXA ",
"[ [ { { ] ] yXMXNXtX9 C A V '.Q.E.h.h.p.a.p.p.d.R.T.T.T.T.d.d.d.h.t.T.}.p.s.(.I =.uX9X=.=.>.=.9X>X",
"] ] [ { | 0 =.zXMXpX:X9 N M./.d.p.a.a.p.r.a.f.s.s.s.T.T.T.d.d.d.t.w.Q.y. X X/.%...0X0X=.| ..| =.D ",
"; n n m n m A dXmXiXC 7 o.`./.R.d.p.p.p.p.p.p.s.s.s.s.s.d.d.g.d.T.w.P.T.f.d.).L...2.2.1.*.+.2.2.-.",
"v f G G G n n Z H F C 7 O.'.Q.R.U.d.d.s.s.s.s.s.s.s.s.s.s.s.s.s.Q.P.t.I.f.g.E.L.*.J U 3.[.L.*.U [ ",
"b v G f G 5 5 5 5 5 8   T |.i.s.T.U.I.y.y.s.s.s.s.s.s.s.s.s.s.T.Q.P.0.s.a.a.d.U.E U Y E R R E Y Y ",
"<X=X=Xb 1Xz z z Z Z C + 7.|.i.f.T.I.I.I.I.s.s.s.s.s.s.s.s.s.T.T.Q.I.0.s.a.a.d.U.e.Y _ R P ^ ` ( ` ",
"7X$X#X*X<X*X#X<X;X;XC n T !.s.Q.T.T.I.I.I.y.s.s.g.g.g.g.d.d.T.T.T.T.0.p.g.d.R.U.e.L ^ ^ ( ( ~ ` ( ",
"4X4X2X7X7X&X#X-XC F F M T ^.Q.d.s.s.s.y.I.I.I.T.s.s.s.d.d.d.T.T.T.T.0.s.E.E._.U.P P ^ Q Q Q ! / / ",
"&X4X2X6X7X$X@XZ ;.:.G.X.> N./.s.p.p.p.s.s.d.R.R.d.d.d.d.d.d.T.T.T.s.5.t.!.Q._.L.K R ^ ~ ) ' ' / / ",
"4X4X6X6X7X$X@XZ :.%.&.o . I ~.Q.p.r.p.p.s.d.d.d.d.d.s.d.T.T.T.!.!.P.9.9.P.P.(.P P ` ^ ( ) ! ! ' ~ ",
"3X6X6X6X7X$X%X;X:.&.&.I X T L.w.g.g.p.p.h.p.j.u.u.g.p.i.!.!.Y.P.V.Z.M.H.b.n.9.K R R ^ ~ / / ~ ~ ( ",
"3X6X6X2X4X&X%X-X .U 1 1 I '.(.w.5.i.Y.W./.W.W.Q.W./.^.P.V.V.V.~.].JXDXJ.F.E K R ^ ( ~ ~ / / ~ ~ ( ",
",X7X2X2X4X&X%X-Xm 1 < 1 T ^.P.Q.w.W n.N.M.J.J.J.H.H.J.J.J.H.H.].nXKXPXPXG.K ` Q / ) ) ) ) ' _ _ / ",
",X7X4X4X4X&X%X;XH #.G.> b.OXs.T./.(.n.N.DXDXKXKXJXDXJ.D.H.H.H.H.J.S.bX<.U L Q Q ) ) ) ) ) ) _ / / ",
"5X5X4X&X&X&X%X;X-.*.%.o 4 /.f.r.p.T./.n.K.KXPXPXK.C.P.i.Y.!./.'.'.`.I U L R ` ) ) ) Q Q ~ ~ Q Q ^ ",
"5X&X&X&X,X$X%X;X-.,.G.: T ^.d.r.a.p.R./.D.4.ZXdXM.P.f.l.l.g.I.(._.9.P _ L / ~ Q ~ Q Q ^ ( ~ Q Q ^ ",
"#X#X$X$X,X,X%X-XqX>.M N T '.R.j.p.u.u.Q.C.*   ; `.Q.d.h.h.g.Q.Q.).e.L ^ L ! / ) ~ Q ^ ` _ _ ( ^ ( ",
"6 6 @X@X@X@X@X;X6 Z 5   * `.Q.d.d.f.d.E.b.# n & N.W.).E.f.l.E.d.).e.K L Y _ _ _ _ R E E E R R L L ",
"k k k h q q h h q j j s # D.^.E.!.T.d.}.q.# $ $ 3 '.U.d.p.l.a.p.j.u.K K U Y *.*.*.E Y Y Y Y L L / ",
"p p p p p p j g c q x v & c.XXt.W.!.p.l.Z.# t t ; C.(.).r.r.h.j.).Q.W I : + + , , , + : I *._ _ _ ",
"g g y y p p u u p i w y & * P..XQ.E.k.i.{.2 p j   V '.t.a.a.j.u.E.!.6.o ; a G k p a a n ; , < $.*.",
"g g w y y y w w i p e r & * L.).).u.j.5.^.c.r c t ; z.XXE.a.j.d.T.Y.C.2 t k b g c c v k a t ; ; , ",
"p y d w u y e e i i e % 3 8.U.).u.k..XQ.OXK.% p f & 2 H.^.T.f.E..Xt.0.Z.; a q v f p i k b G a t t ",
"t r w w u u y y q v r & c.H.V./.XXOXL.6.T V % r r t # - ^.|.}.d.E.W.^.K.B G j i y f v b l l c c c ",
"t r w w u j u i a s p r % B V V 2 B & & & $ i c y % * 7.I..Xu.)._.'.oX4.$ q c x c c l l l c c c c ",
"t p y u j j i i a a p p p $ % $ r e p p f i j w y t K.~.I.u.).Q.~.3 * & f c x x x c l l j j c c c ",
"p p y y u u u i i i u u i p p p i i i u i i j i y % 2 6.9.w.I.6.; & t a j c c c c c j j c c c c j "
};
