/* XPM */
static char *_85f9d51ff284500b09ceacb1b33db9bfjctRprGtX8MUede[] = {
/* columns rows colors chars-per-pixel */
"49 49 153 2 ",
"   c None",
".  c #94641C",
"X  c #996F26",
"o  c #8E7531",
"O  c #937646",
"+  c #B78313",
"@  c #B68D13",
"#  c #B38B1B",
"$  c #B98C1C",
"%  c #BA921C",
"&  c #BC991D",
"*  c #A28427",
"=  c #AC8D2D",
"-  c #B28A21",
";  c #BA8E22",
":  c #AD902E",
">  c #BA9422",
",  c #B59C26",
"<  c #BD9B22",
"1  c #BB9229",
"2  c #B69928",
"3  c #BD9E2C",
"4  c #A78C37",
"5  c #AA8C33",
"6  c #A0863A",
"7  c #A0883B",
"8  c #AB8B3A",
"9  c #B08E39",
"0  c #AC903E",
"q  c #BE9D35",
"w  c #B09238",
"e  c #B79B3B",
"r  c #BA9D3C",
"t  c #BAA826",
"y  c #BCA131",
"u  c #C38F1B",
"i  c #CD9715",
"p  c #C69B15",
"a  c #CA9C15",
"s  c #C2941B",
"d  c #C89618",
"f  c #C39C1A",
"g  c #CA9D1C",
"h  c #CEA60E",
"j  c #DEAE05",
"k  c #D7A70F",
"l  c #D9A70F",
"z  c #D5AA0D",
"x  c #DBAE0C",
"c  c #DDB204",
"v  c #DDB20B",
"b  c #DFB809",
"n  c #CDA414",
"m  c #CEAA15",
"M  c #C5A11C",
"N  c #CBA41B",
"B  c #CEAB19",
"V  c #D2A513",
"C  c #D5AC13",
"Z  c #D9AD12",
"A  c #D5A61C",
"S  c #D4AA1A",
"D  c #DAAB1D",
"F  c #CFB11A",
"G  c #D6B412",
"H  c #DCB112",
"J  c #D5B21B",
"K  c #DBB21A",
"L  c #E0AE03",
"P  c #E2AF0E",
"I  c #E2B505",
"U  c #E5B805",
"Y  c #E2B40A",
"T  c #E8B20F",
"R  c #E5B80A",
"E  c #E1B314",
"W  c #C39520",
"Q  c #C39A21",
"!  c #C5A327",
"~  c #CCAA22",
"^  c #C3A42C",
"/  c #CBAA2B",
"(  c #D1A526",
")  c #D4AC24",
"_  c #C6A733",
"`  c #C4A438",
"'  c #E1B523",
"]  c #9F934D",
"[  c #A48B45",
"{  c #AC8F41",
"}  c #A6844A",
"|  c #AB8C4B",
" . c #AE9245",
".. c #AA9345",
"X. c #AE9941",
"o. c #AF974A",
"O. c #AD964A",
"+. c #AE964E",
"@. c #AF984B",
"#. c #B19749",
"$. c #B1994C",
"%. c #A78653",
"&. c #B08C50",
"*. c #A89B59",
"=. c #B39F55",
"-. c #B6A34E",
";. c #B9A14D",
":. c #B1A15C",
">. c #BBA65B",
",. c #A59863",
"<. c #AE9F73",
"1. c #B7A164",
"2. c #BCAA68",
"3. c #B8AD6C",
"4. c #AAA272",
"5. c #B6AB7F",
"6. c #A7A383",
"7. c #AEA785",
"8. c #ADA58A",
"9. c #B1A781",
"0. c #B1AA85",
"q. c #B7AC8C",
"w. c #BCB49D",
"e. c #A3A7A6",
"r. c #AAA2A2",
"t. c #ADAEA5",
"y. c #B7B4A6",
"u. c #B6B9AC",
"i. c #A7AFB9",
"p. c #AFB8B7",
"a. c #B5B9BA",
"s. c #C0C1BB",
"d. c #A5B4C7",
"f. c #AFB9C5",
"g. c #AAB5C9",
"h. c #B8B7C2",
"j. c #B7BDC7",
"k. c #B5BDC7",
"l. c #B1BBC8",
"z. c #ADBDD9",
"x. c #B7BED2",
"c. c #C1BECE",
"v. c #B7C1C7",
"b. c #BDC1C3",
"n. c #BCC0C7",
"m. c #BEC4CF",
"M. c #B8C2CC",
"N. c #BCC7D3",
"B. c #B1C1DF",
"V. c #B5C4DD",
"C. c #BBCAE5",
"Z. c #B8CFF0",
"A. c #B8D0F3",
/* pixels */
"                                                        f C v G B                                 ",
"                                                      d Z Y I I v S                               ",
"                                                      A R R I I Y T                               ",
"                                                    | ` m ~ ~ x U R '                             ",
"                                                    x.m.6.u.b.2.Z R                               ",
"                                                  r.e.j.g.z.B.s./ S                               ",
"                                                  } q ^ 4.l.V.w.( s                               ",
"                                                  X - f 2 :.3._ Z s                               ",
"                                                  |  . .8 5 % Z Y s                               ",
"                                                %.+.o.o.@.o.{ % Z g                               ",
"                                                &.#.o.o.$.@.o.9 N )                               ",
"                                                  | [ [ [ 7 6 0 f H                               ",
"                                                    O [ [ [ ..: V Y (                             ",
"                                                    4 8  .{ 5 f v Y D                             ",
"                                                  3 K S f & n v I Y K                             ",
"                                              = & x v v v c c c Y Y v                             ",
"                                            ; N v c c c c c c c Y Y Y J                           ",
"                                        5 > n Y c I I c c c c c Y Y Y Y K                         ",
"                                      o > p v I I I c c c c v v c c c Y E                         ",
"                                    , B v v Y I c I c c z v v v c c Y Y Y v                       ",
"                                ! C v I I c c c c c v v z c c c c c Y Y Y H                       ",
"                              M v c c c c I c c c v v v v c v v v c c Y Y Y J                     ",
"                            M I c c c c c c c v v c c c v c c v x z v Y Y I v                     ",
"                          1 H Y c v v v v v v v v c c c c c c v x p v Y Y I Y n                   ",
"                          A Y I c v v v c c c c c c c c c c c c c a n Y Y Y b V                   ",
"                          Z Y Y v v c c c c c c c c c c c c c c c C p v c Y Y C W                 ",
"                          Z v v v v j j x c j x v v v c c c c c c v f Z c Y Y Z Q                 ",
"                          Z v v v v v x z c c x x v v c c c c c v v a C Y Y Y C Q                 ",
"                          S v c v v c x z c c c c v v c c c c c v v n z Y Y Y C s                 ",
"                          V c c c c c c c c c c v v v c c c c c Y Y a z Y Y Y Z $                 ",
"                          + x c c c c c c c v v x v c c c c c c I v a V v c v S                   ",
"                          . p v c c c j j c v c c c c c c c Y I c x s % m h C g                   ",
"                          $ d a Z v c j L c v c c c v v v c v z C / e 1 a @ N                     ",
"                          g Y n $ a x x c c v c c v v Z N ` >.5.y.n.N.q.1.8                       ",
"                          Z Y v n - w r 3 ! / ~ / ` ;.1.<.8.7.0.t.f.C.C.c.                        ",
"                          x Y Y c Z 3 ,.t.j.v.v.M.a.7.=.^ ~ m z B y 9.h.                          ",
"                          Z I I c c c N *.k.Z.A.p.-.m v v v v Y Y H                               ",
"                          C I I c c c Y B ] d.i.X.H Y c c Y v Y Y Z                               ",
"                          S I I I c I U H       & Y I I Y Y c Y Y E                               ",
"                          f Y I I R I U C       < Y U I Y Y Y Y Y V                               ",
"                          M c I I U I U C         Z I Y Y Y I v Y Z                               ",
"                            x I I I I U H         N c I I I I Y Y E                               ",
"                            B Y U U U x Z t         C Y I c I I Y Y )                             ",
"                            Q T U U U l k F         < H c c U U U v S /                           ",
"                          < S T U U R T T K           N v I I U R H a J                           ",
"                        * u i x Y T E A                 n R R R U T P E                           ",
"                            <                         , C I U U U R E ~                           ",
"                                                    ! f V z c R Z ~                               ",
"                                                      > # p V S                                   "
};
