/* XPM */
static char *_1bb681a7cd841fecb23a9f29588c6a8Q1EKgUqi0w9LTPpf[] = {
/* columns rows colors chars-per-pixel */
"16 16 10 1 ",
"  c None",
". c #25131A",
"X c #593756",
"o c #895A45",
"O c #BC4C51",
"+ c #8C7254",
"@ c #BF704D",
"# c #90919E",
"$ c #B19D83",
"% c #ADC1CF",
/* pixels */
"OO            OO",
"O  .....       O",
"  .+$$$+.....   ",
" .+$$$$$+.###.  ",
" .$XX.$X...%%#. ",
" .$...$....o.%#.",
"  .+$$$$$..@..%.",
"  ..+$.$. .@. ..",
" .+........oo.  ",
" .$o@.+.+$$..   ",
".$..o%......    ",
".+.+.@@. .o.    ",
"...+.... .@.    ",
" .$. .$. .o.    ",
"O.+. .+. .o.   O",
"OO            OO"
};
