/* XPM */
static char *_c880e43540f4fd7e4d48df6f676635e2j8YFDpuIQcuamf1[] = {
/* columns rows colors chars-per-pixel */
"24 24 58 1 ",
"  c black",
". c #0D0802",
"X c #170702",
"o c #130A03",
"O c #160A03",
"+ c #170A04",
"@ c #1A0B00",
"# c #1A0E03",
"$ c #1C0F03",
"% c #180B04",
"& c #190C05",
"* c #1C0F04",
"= c #09110A",
"- c #1D1003",
"; c #44270F",
": c #57240C",
"> c #58240C",
", c #5F2C0D",
"< c #5B310F",
"1 c #5F2E13",
"2 c #5B3110",
"3 c #5C3310",
"4 c #60290D",
"5 c #612E0F",
"6 c #63350D",
"7 c #64360D",
"8 c #67380F",
"9 c #6A390D",
"0 c #6D3B0F",
"q c #6B3C0F",
"w c #6E3C0F",
"e c #713F0E",
"r c #602B12",
"t c #622F10",
"y c #652D10",
"u c #652F15",
"i c #623212",
"p c #653112",
"a c #6A3113",
"s c #683314",
"d c #6C3216",
"f c #693414",
"g c #6E3416",
"h c #673810",
"j c #683910",
"k c #6C3A10",
"l c #6F3C10",
"z c #703715",
"x c #713E11",
"c c #713815",
"v c #773818",
"b c #74430F",
"n c #724010",
"m c #754310",
"M c #794211",
"N c #7D4710",
"B c #4E6338",
"V c #854B12",
/* pixels */
"BBBBBBBBBBBBBBBBBBBBBBBB",
"BBBBBBBBBBBBBBBBBBBBBBBB",
"BBBBBBBBBBBBBBBBBBBBBBBB",
"BBBBBBBBBBBBBBBBBBBBBBBB",
"BBBBBX*%*%&&-&-&-&#BBBBB",
"BBBBXvMdMdMBBzNcNzV@BBBB",
"BBBBO4xu7u9BBsb,baN$BBBB",
"BBBB%axu0ulBB5bpbfe#BBBB",
"BBBB%g0:xu6BBsbab,N$BBBB",
"BBBB%dwrxukBBf9pbpN$BBBB",
"BBBB&g9uwr0BBsbp9pe#BBBB",
"BBBB+yxuwrlBBtbpbtN$BBBB",
"BBBBO4xuxulBB,mam5N$BBBB",
"BBBB%axuxu7BBp9pqiN$BBBB",
"BBBB%g9uwrxBBpbpbaN$BBBB",
"BBBB%gxuw>xBBfb5baN$BBBB",
"BBBB%s81jthBB,qiqin#BBBB",
"BBBBO333333BB333332OBBBB",
"BBBB.;            ;.BBBB",
"BBBBo<=BBBBBBBBBB=<oBBBB",
"BBBBBBBBBBBBBBBBBBBBBBBB",
"BBBBBBBBBBBBBBBBBBBBBBBB",
"BBBBBBBBBBBBBBBBBBBBBBBB",
"BBBBBBBBBBBBBBBBBBBBBBBB"
};
