/* XPM */
static char *ec6936f895874baa99315eb3791fc1feuXfjmqm7Ut8mUUb5[] = {
/* columns rows colors chars-per-pixel */
"24 24 22 1 ",
"  c #040404",
". c #303600",
"X c #3F3013",
"o c #433416",
"O c #455000",
"+ c #5D4717",
"@ c #627105",
"# c #4E6338",
"$ c #686662",
"% c #6E6C68",
"& c #866114",
"* c #84482A",
"= c #AA5A33",
"- c #D97F40",
"; c #8B9E0F",
": c #F6A954",
"> c #A8A59D",
", c #BFB7A6",
"< c #F7D099",
"1 c #C8C1B3",
"2 c #D4CFC4",
"3 c gray91",
/* pixels */
"########################",
"########################",
"#######  ###############",
"###### 22 ##############",
"##### 22>>    ##########",
"#####   $$@;;@ #########",
"#######  $@;;@o  #######",
"###### ..&O@@O&.. ######",
"###### O.o%11%o.O ######",
"###### OO.,oo,.OO ######",
"###### .@;%,,%;@. ######",
"###### ..@;;;;@.. ######",
"####### .OOOOOO. #######",
"######## 3 << 3 ########",
"####### @=::::=@ #######",
"###### @@@****@@@ ######",
"##### :: O@@@@O :: #####",
"##### :- OOOOOO -: #####",
"######   .OOOO.   ######",
"######## XX  XX ########",
"######## ++  ++ ########",
"########################",
"########################",
"########################"
};
