/* XPM */
static char *a32c6694dd9c484e93fbeb30c214dfd18zX1JVp4ffYsESzW[] = {
/* columns rows colors chars-per-pixel */
"24 24 7 1 ",
"  c black",
". c #586738",
"X c #BB9E79",
"o c #CDAC85",
"O c #DDB78F",
"+ c #EEC39A",
"@ c #FACBA6",
/* pixels */
"........................",
"........................",
"........................",
"........................",
"........................",
"........................",
"........................",
"........................",
"........................",
"..........    ..........",
"......... O++@ .........",
"......... O +  .........",
"......... O++@ .........",
"......... XoO ..........",
"........ OXoO@ .........",
"......... o + ..........",
"........................",
"........................",
"........................",
"........................",
"........................",
"........................",
"........................",
"........................"
};
