/* XPM */
static char *e01c59a5f29249eca4bed5fad544d6a5nYz7QGoe9obnJ3sO[] = {
/* columns rows colors chars-per-pixel */
"24 24 59 1 ",
"  c black",
". c #020503",
"X c #0B0502",
"o c #170702",
"O c #120902",
"+ c #150903",
"@ c #170A04",
"# c #1A0B00",
"$ c #1A0E03",
"% c #1C0F03",
"& c #180B04",
"* c #1B0F04",
"= c #1C0F04",
"- c #1D1003",
"; c #44270F",
": c #57240C",
"> c #58240C",
", c #5F2C0D",
"< c #5B310F",
"1 c #5F2E13",
"2 c #5B3110",
"3 c #5C3310",
"4 c #60290D",
"5 c #612E0F",
"6 c #63350D",
"7 c #64360D",
"8 c #67380F",
"9 c #6A390D",
"0 c #6D3B0F",
"q c #6B3C0F",
"w c #6E3C0F",
"e c #713F0E",
"r c #602B12",
"t c #622F10",
"y c #652D10",
"u c #652F15",
"i c #623212",
"p c #653112",
"a c #6A3113",
"s c #683314",
"d c #6C3216",
"f c #693414",
"g c #6E3416",
"h c #673810",
"j c #683910",
"k c #6C3A10",
"l c #6F3C10",
"z c #703715",
"x c #713E11",
"c c #713815",
"v c #773818",
"b c #74430F",
"n c #724010",
"m c #754310",
"M c #794211",
"N c #7D4710",
"B c #515E33",
"V c #586738",
"C c #854B12",
/* pixels */
"VVVVVVVVVVVVVVVVVVVVVVVV",
"VVVVVVVVVVVVVVVVVVVVVVVV",
"VVVVVVVVVVVVVVVVVVVVVVVV",
"VVVVVVVVVVVVVVVVVVVVVVVV",
"VVVVBo=&=&****-*-*$BVVVV",
"VVVVovMdMdMVVzNcNzC#VVVV",
"VVVV+4xu7u9VVsb,baN%VVVV",
"VVVV&axu0ulVV5bpbfe$VVVV",
"VVVV&g0:xu6VVsbab,N%VVVV",
"VVVV&dwrxukVVf9pbpN%VVVV",
"VVVV*g9uwr0VVsbp9pe$VVVV",
"VVVV@yxuwrlVVtbpbtN%VVVV",
"VVVV+4xuxulVV,mam5N%VVVV",
"VVVV&axuxu7VVp9pqiN%VVVV",
"VVVV&g9uwrxVVpbpbaN%VVVV",
"VVVV&gxuw>xVVfb5baN%VVVV",
"VVVV&s81jthVV,qiqin$VVVV",
"VVVVO333333VV333332OVVVV",
"VVVV ;            ; VVVV",
"VVVVX<.VVVVVVVVVV.<XVVVV",
"VVVVVVVVVVVVVVVVVVVVVVVV",
"VVVVVVVVVVVVVVVVVVVVVVVV",
"VVVVVVVVVVVVVVVVVVVVVVVV",
"VVVVVVVVVVVVVVVVVVVVVVVV"
};
