/* XPM */
static char *_909db80030d41afb6fb6be0c8f3d31cgWdPppoAYLg7jO5b[] = {
/* columns rows colors chars-per-pixel */
"24 24 11 1 ",
"  c gray9",
". c #2E2415",
"X c #213F2F",
"o c #4F3712",
"O c #346B3D",
"+ c #644F1B",
"@ c #586738",
"# c #7B642E",
"$ c #598C46",
"% c #77A947",
"& c #93C147",
/* pixels */
"@@@@@@@@@@@@@@@@@@@@@@@@",
"@@@@@@@@@@@   @@@@@@@@@@",
"@@@@@@@@@@@   @@@@@@@@@@",
"@@@@@@@@@  &&& @@@@@@@@@",
"@@@@@@@@ $$&&&$  @@@@@@@",
"@@@@@@@@ $$&&&$  @@@@@@@",
"@@@@@@@@ %%%%%%  @@@@@@@",
"@@@@@@  O$$%%%$OO @@@@@@",
"@@@@@@  O$$%%%$OO @@@@@@",
"@@@@@ XX$$$$$$$$$X  @@@@",
"@@@@@ OOO$$$$$$OOO  @@@@",
"@@@@@ OOO$$$$$$OOO  @@@@",
"@@@@@ OOOOOOOOOOOO  @@@@",
"@@@@@ XXOOOOOOOOOX  @@@@",
"@@@@@ XXOOOOOOOOOX  @@@@",
"@@@@@ XXXXXXXXXXXX  @@@@",
"@@@@@@  XXXXXXXXX @@@@@@",
"@@@@@@  XXXXXXXXX @@@@@@",
"@@@@@@@@ ..ooo.  @@@@@@@",
"@@@@@@@@.oo+++o..@@@@@@@",
"@@@@@@@@.oo+++o..@@@@@@@",
"@@@@@@@@@..###.@@@@@@@@@",
"@@@@@@@@@@@@@@@@@@@@@@@@",
"@@@@@@@@@@@@@@@@@@@@@@@@"
};
